<mxfile host="app.diagrams.net" modified="2023-12-06T23:04:11.696Z" agent="Mozilla/5.0 (Windows NT 10.0; Win64; x64) AppleWebKit/537.36 (KHTML, like Gecko) Chrome/119.0.0.0 Safari/537.36" etag="w_ra_TilTLW_UKfSTG5q" version="22.1.5" type="device">
  <diagram id="Yg31Is1OvJvXWX4YdHvi" name="Seite-2">
    <mxGraphModel dx="1660" dy="768" grid="1" gridSize="10" guides="1" tooltips="1" connect="1" arrows="1" fold="1" page="1" pageScale="1" pageWidth="2336" pageHeight="1654" math="0" shadow="0">
      <root>
        <mxCell id="0" />
        <mxCell id="1" parent="0" />
        <mxCell id="HEdpV7chVjDefoVxhcOi-1" value="" style="ellipse;html=1;shape=startState;fillColor=#000000;strokeColor=#ff0000;" vertex="1" parent="1">
          <mxGeometry x="40" y="95" width="30" height="30" as="geometry" />
        </mxCell>
        <mxCell id="HEdpV7chVjDefoVxhcOi-2" value="" style="edgeStyle=orthogonalEdgeStyle;html=1;verticalAlign=bottom;endArrow=open;endSize=8;strokeColor=#ff0000;rounded=0;" edge="1" source="HEdpV7chVjDefoVxhcOi-1" parent="1" target="HEdpV7chVjDefoVxhcOi-3">
          <mxGeometry relative="1" as="geometry">
            <mxPoint x="160" y="115" as="targetPoint" />
          </mxGeometry>
        </mxCell>
        <mxCell id="HEdpV7chVjDefoVxhcOi-3" value="Register" style="rounded=1;whiteSpace=wrap;html=1;arcSize=40;fontColor=#000000;fillColor=#ffffc0;strokeColor=#ff0000;" vertex="1" parent="1">
          <mxGeometry x="150" y="90" width="120" height="40" as="geometry" />
        </mxCell>
        <mxCell id="HEdpV7chVjDefoVxhcOi-4" value="" style="edgeStyle=orthogonalEdgeStyle;html=1;verticalAlign=bottom;endArrow=open;endSize=8;strokeColor=#ff0000;rounded=0;" edge="1" source="HEdpV7chVjDefoVxhcOi-3" parent="1" target="HEdpV7chVjDefoVxhcOi-5">
          <mxGeometry relative="1" as="geometry">
            <mxPoint x="240" y="200" as="targetPoint" />
            <Array as="points">
              <mxPoint x="210" y="180" />
            </Array>
          </mxGeometry>
        </mxCell>
        <mxCell id="HEdpV7chVjDefoVxhcOi-5" value="create default space" style="rounded=1;whiteSpace=wrap;html=1;arcSize=40;fontColor=#000000;fillColor=#ffffc0;strokeColor=#ff0000;" vertex="1" parent="1">
          <mxGeometry x="310" y="160" width="120" height="40" as="geometry" />
        </mxCell>
        <mxCell id="HEdpV7chVjDefoVxhcOi-6" value="" style="edgeStyle=orthogonalEdgeStyle;html=1;verticalAlign=bottom;endArrow=open;endSize=8;strokeColor=#ff0000;rounded=0;" edge="1" source="HEdpV7chVjDefoVxhcOi-5" parent="1" target="HEdpV7chVjDefoVxhcOi-7">
          <mxGeometry relative="1" as="geometry">
            <mxPoint x="430" y="195" as="targetPoint" />
          </mxGeometry>
        </mxCell>
        <mxCell id="HEdpV7chVjDefoVxhcOi-7" value="create to-do list" style="rounded=1;whiteSpace=wrap;html=1;arcSize=40;fontColor=#000000;fillColor=#ffffc0;strokeColor=#ff0000;" vertex="1" parent="1">
          <mxGeometry x="510" y="95" width="120" height="40" as="geometry" />
        </mxCell>
        <mxCell id="HEdpV7chVjDefoVxhcOi-8" value="" style="edgeStyle=orthogonalEdgeStyle;html=1;verticalAlign=bottom;endArrow=open;endSize=8;strokeColor=#ff0000;rounded=0;" edge="1" source="HEdpV7chVjDefoVxhcOi-7" parent="1" target="HEdpV7chVjDefoVxhcOi-9">
          <mxGeometry relative="1" as="geometry">
            <mxPoint x="670" y="115" as="targetPoint" />
          </mxGeometry>
        </mxCell>
        <mxCell id="HEdpV7chVjDefoVxhcOi-9" value="edit to-do list" style="rounded=1;whiteSpace=wrap;html=1;arcSize=40;fontColor=#000000;fillColor=#ffffc0;strokeColor=#ff0000;" vertex="1" parent="1">
          <mxGeometry x="697" y="95" width="120" height="40" as="geometry" />
        </mxCell>
        <mxCell id="HEdpV7chVjDefoVxhcOi-10" value="" style="edgeStyle=orthogonalEdgeStyle;html=1;verticalAlign=bottom;endArrow=open;endSize=8;strokeColor=#ff0000;rounded=0;" edge="1" source="HEdpV7chVjDefoVxhcOi-9" parent="1" target="HEdpV7chVjDefoVxhcOi-19">
          <mxGeometry relative="1" as="geometry">
            <mxPoint x="1000" y="115" as="targetPoint" />
          </mxGeometry>
        </mxCell>
        <mxCell id="HEdpV7chVjDefoVxhcOi-19" value="create task" style="rounded=1;whiteSpace=wrap;html=1;arcSize=40;fontColor=#000000;fillColor=#ffffc0;strokeColor=#ff0000;" vertex="1" parent="1">
          <mxGeometry x="880" y="95" width="120" height="40" as="geometry" />
        </mxCell>
        <mxCell id="HEdpV7chVjDefoVxhcOi-20" value="" style="edgeStyle=orthogonalEdgeStyle;html=1;verticalAlign=bottom;endArrow=open;endSize=8;strokeColor=#ff0000;rounded=0;" edge="1" source="HEdpV7chVjDefoVxhcOi-19" parent="1" target="HEdpV7chVjDefoVxhcOi-22">
          <mxGeometry relative="1" as="geometry">
            <mxPoint x="1040" y="350" as="targetPoint" />
          </mxGeometry>
        </mxCell>
        <mxCell id="HEdpV7chVjDefoVxhcOi-22" value="sync data" style="rounded=1;whiteSpace=wrap;html=1;arcSize=40;fontColor=#000000;fillColor=#ffffc0;strokeColor=#ff0000;" vertex="1" parent="1">
          <mxGeometry x="1070" y="95" width="120" height="40" as="geometry" />
        </mxCell>
        <mxCell id="HEdpV7chVjDefoVxhcOi-23" value="" style="edgeStyle=orthogonalEdgeStyle;html=1;verticalAlign=bottom;endArrow=open;endSize=8;strokeColor=#ff0000;rounded=0;" edge="1" source="HEdpV7chVjDefoVxhcOi-22" parent="1" target="HEdpV7chVjDefoVxhcOi-26">
          <mxGeometry relative="1" as="geometry">
            <mxPoint x="1250" y="115" as="targetPoint" />
          </mxGeometry>
        </mxCell>
        <mxCell id="HEdpV7chVjDefoVxhcOi-26" value="" style="ellipse;html=1;shape=endState;fillColor=#000000;strokeColor=#ff0000;" vertex="1" parent="1">
          <mxGeometry x="1295" y="100" width="30" height="30" as="geometry" />
        </mxCell>
        <mxCell id="HEdpV7chVjDefoVxhcOi-27" value="create task new user account" style="shape=umlFrame;whiteSpace=wrap;html=1;pointerEvents=0;width=110;height=30;" vertex="1" parent="1">
          <mxGeometry x="10" y="10" width="1520" height="200" as="geometry" />
        </mxCell>
        <mxCell id="HEdpV7chVjDefoVxhcOi-28" value="" style="ellipse;html=1;shape=startState;fillColor=#000000;strokeColor=#ff0000;" vertex="1" parent="1">
          <mxGeometry x="40" y="320" width="30" height="30" as="geometry" />
        </mxCell>
        <mxCell id="HEdpV7chVjDefoVxhcOi-29" value="" style="edgeStyle=orthogonalEdgeStyle;html=1;verticalAlign=bottom;endArrow=open;endSize=8;strokeColor=#ff0000;rounded=0;" edge="1" source="HEdpV7chVjDefoVxhcOi-28" parent="1" target="HEdpV7chVjDefoVxhcOi-32">
          <mxGeometry relative="1" as="geometry">
            <mxPoint x="140" y="335" as="targetPoint" />
          </mxGeometry>
        </mxCell>
        <mxCell id="HEdpV7chVjDefoVxhcOi-32" value="create space" style="rounded=1;whiteSpace=wrap;html=1;arcSize=40;fontColor=#000000;fillColor=#ffffc0;strokeColor=#ff0000;" vertex="1" parent="1">
          <mxGeometry x="310" y="315" width="120" height="40" as="geometry" />
        </mxCell>
        <mxCell id="HEdpV7chVjDefoVxhcOi-33" value="" style="edgeStyle=orthogonalEdgeStyle;html=1;verticalAlign=bottom;endArrow=open;endSize=8;strokeColor=#ff0000;rounded=0;" edge="1" source="HEdpV7chVjDefoVxhcOi-32" parent="1" target="HEdpV7chVjDefoVxhcOi-34">
          <mxGeometry relative="1" as="geometry">
            <mxPoint x="370" y="415" as="targetPoint" />
          </mxGeometry>
        </mxCell>
        <mxCell id="HEdpV7chVjDefoVxhcOi-34" value="create to-do list" style="rounded=1;whiteSpace=wrap;html=1;arcSize=40;fontColor=#000000;fillColor=#ffffc0;strokeColor=#ff0000;" vertex="1" parent="1">
          <mxGeometry x="500" y="315" width="120" height="40" as="geometry" />
        </mxCell>
        <mxCell id="HEdpV7chVjDefoVxhcOi-35" value="" style="edgeStyle=orthogonalEdgeStyle;html=1;verticalAlign=bottom;endArrow=open;endSize=8;strokeColor=#ff0000;rounded=0;" edge="1" parent="1" source="HEdpV7chVjDefoVxhcOi-34" target="HEdpV7chVjDefoVxhcOi-36">
          <mxGeometry relative="1" as="geometry">
            <mxPoint x="660" y="335" as="targetPoint" />
          </mxGeometry>
        </mxCell>
        <mxCell id="HEdpV7chVjDefoVxhcOi-36" value="edit to-do list" style="rounded=1;whiteSpace=wrap;html=1;arcSize=40;fontColor=#000000;fillColor=#ffffc0;strokeColor=#ff0000;" vertex="1" parent="1">
          <mxGeometry x="687" y="315" width="120" height="40" as="geometry" />
        </mxCell>
        <mxCell id="HEdpV7chVjDefoVxhcOi-37" value="" style="edgeStyle=orthogonalEdgeStyle;html=1;verticalAlign=bottom;endArrow=open;endSize=8;strokeColor=#ff0000;rounded=0;" edge="1" parent="1" source="HEdpV7chVjDefoVxhcOi-36" target="HEdpV7chVjDefoVxhcOi-38">
          <mxGeometry relative="1" as="geometry">
            <mxPoint x="990" y="335" as="targetPoint" />
          </mxGeometry>
        </mxCell>
        <mxCell id="HEdpV7chVjDefoVxhcOi-38" value="create task" style="rounded=1;whiteSpace=wrap;html=1;arcSize=40;fontColor=#000000;fillColor=#ffffc0;strokeColor=#ff0000;" vertex="1" parent="1">
          <mxGeometry x="870" y="315" width="120" height="40" as="geometry" />
        </mxCell>
        <mxCell id="HEdpV7chVjDefoVxhcOi-39" value="" style="edgeStyle=orthogonalEdgeStyle;html=1;verticalAlign=bottom;endArrow=open;endSize=8;strokeColor=#ff0000;rounded=0;" edge="1" parent="1" source="HEdpV7chVjDefoVxhcOi-38" target="HEdpV7chVjDefoVxhcOi-40">
          <mxGeometry relative="1" as="geometry">
            <mxPoint x="1030" y="570" as="targetPoint" />
          </mxGeometry>
        </mxCell>
        <mxCell id="HEdpV7chVjDefoVxhcOi-40" value="sync data" style="rounded=1;whiteSpace=wrap;html=1;arcSize=40;fontColor=#000000;fillColor=#ffffc0;strokeColor=#ff0000;" vertex="1" parent="1">
          <mxGeometry x="1060" y="315" width="120" height="40" as="geometry" />
        </mxCell>
        <mxCell id="HEdpV7chVjDefoVxhcOi-41" value="" style="edgeStyle=orthogonalEdgeStyle;html=1;verticalAlign=bottom;endArrow=open;endSize=8;strokeColor=#ff0000;rounded=0;" edge="1" parent="1" source="HEdpV7chVjDefoVxhcOi-40" target="HEdpV7chVjDefoVxhcOi-44">
          <mxGeometry relative="1" as="geometry">
            <mxPoint x="1240" y="335" as="targetPoint" />
          </mxGeometry>
        </mxCell>
        <mxCell id="HEdpV7chVjDefoVxhcOi-44" value="" style="ellipse;html=1;shape=endState;fillColor=#000000;strokeColor=#ff0000;" vertex="1" parent="1">
          <mxGeometry x="1290" y="320" width="30" height="30" as="geometry" />
        </mxCell>
        <mxCell id="HEdpV7chVjDefoVxhcOi-45" value="create task from new space&amp;nbsp;" style="shape=umlFrame;whiteSpace=wrap;html=1;pointerEvents=0;width=100;height=30;" vertex="1" parent="1">
          <mxGeometry x="10" y="240" width="1520" height="190" as="geometry" />
        </mxCell>
        <mxCell id="HEdpV7chVjDefoVxhcOi-46" value="" style="ellipse;html=1;shape=startState;fillColor=#000000;strokeColor=#ff0000;" vertex="1" parent="1">
          <mxGeometry x="40" y="510" width="30" height="30" as="geometry" />
        </mxCell>
        <mxCell id="HEdpV7chVjDefoVxhcOi-47" value="" style="edgeStyle=orthogonalEdgeStyle;html=1;verticalAlign=bottom;endArrow=open;endSize=8;strokeColor=#ff0000;rounded=0;" edge="1" source="HEdpV7chVjDefoVxhcOi-46" parent="1" target="HEdpV7chVjDefoVxhcOi-50">
          <mxGeometry relative="1" as="geometry">
            <mxPoint x="140" y="525" as="targetPoint" />
          </mxGeometry>
        </mxCell>
        <mxCell id="HEdpV7chVjDefoVxhcOi-50" value="select space" style="rounded=1;whiteSpace=wrap;html=1;arcSize=40;fontColor=#000000;fillColor=#ffffc0;strokeColor=#ff0000;" vertex="1" parent="1">
          <mxGeometry x="330" y="505" width="120" height="40" as="geometry" />
        </mxCell>
        <mxCell id="HEdpV7chVjDefoVxhcOi-51" value="" style="edgeStyle=orthogonalEdgeStyle;html=1;verticalAlign=bottom;endArrow=open;endSize=8;strokeColor=#ff0000;rounded=0;" edge="1" source="HEdpV7chVjDefoVxhcOi-50" parent="1" target="HEdpV7chVjDefoVxhcOi-54">
          <mxGeometry relative="1" as="geometry">
            <mxPoint x="470" y="600" as="targetPoint" />
          </mxGeometry>
        </mxCell>
        <mxCell id="HEdpV7chVjDefoVxhcOi-54" value="" style="rhombus;whiteSpace=wrap;html=1;fontColor=#000000;fillColor=#ffffc0;strokeColor=#ff0000;" vertex="1" parent="1">
          <mxGeometry x="500" y="492.5" width="100" height="65" as="geometry" />
        </mxCell>
        <mxCell id="HEdpV7chVjDefoVxhcOi-55" value="[no]" style="edgeStyle=orthogonalEdgeStyle;html=1;align=left;verticalAlign=bottom;endArrow=open;endSize=8;strokeColor=#ff0000;rounded=0;" edge="1" source="HEdpV7chVjDefoVxhcOi-54" parent="1" target="HEdpV7chVjDefoVxhcOi-57">
          <mxGeometry x="-1" relative="1" as="geometry">
            <mxPoint x="790" y="542.5" as="targetPoint" />
          </mxGeometry>
        </mxCell>
        <mxCell id="HEdpV7chVjDefoVxhcOi-56" value="[yes]" style="edgeStyle=orthogonalEdgeStyle;html=1;align=left;verticalAlign=top;endArrow=open;endSize=8;strokeColor=#ff0000;rounded=0;" edge="1" source="HEdpV7chVjDefoVxhcOi-54" parent="1" target="HEdpV7chVjDefoVxhcOi-257">
          <mxGeometry x="-1" relative="1" as="geometry">
            <mxPoint x="560" y="690" as="targetPoint" />
            <Array as="points">
              <mxPoint x="550" y="620" />
              <mxPoint x="847" y="620" />
            </Array>
          </mxGeometry>
        </mxCell>
        <mxCell id="HEdpV7chVjDefoVxhcOi-57" value="create to-do list" style="rounded=1;whiteSpace=wrap;html=1;arcSize=40;fontColor=#000000;fillColor=#ffffc0;strokeColor=#ff0000;" vertex="1" parent="1">
          <mxGeometry x="650" y="505" width="120" height="40" as="geometry" />
        </mxCell>
        <mxCell id="HEdpV7chVjDefoVxhcOi-58" value="" style="edgeStyle=orthogonalEdgeStyle;html=1;verticalAlign=bottom;endArrow=open;endSize=8;strokeColor=#ff0000;rounded=0;" edge="1" source="HEdpV7chVjDefoVxhcOi-57" parent="1" target="HEdpV7chVjDefoVxhcOi-257">
          <mxGeometry relative="1" as="geometry">
            <mxPoint x="900" y="612.5" as="targetPoint" />
          </mxGeometry>
        </mxCell>
        <mxCell id="HEdpV7chVjDefoVxhcOi-59" value="edit to-do list" style="rounded=1;whiteSpace=wrap;html=1;arcSize=40;fontColor=#000000;fillColor=#ffffc0;strokeColor=#ff0000;" vertex="1" parent="1">
          <mxGeometry x="930" y="505" width="120" height="40" as="geometry" />
        </mxCell>
        <mxCell id="HEdpV7chVjDefoVxhcOi-60" value="" style="edgeStyle=orthogonalEdgeStyle;html=1;verticalAlign=bottom;endArrow=open;endSize=8;strokeColor=#ff0000;rounded=0;" edge="1" parent="1" source="HEdpV7chVjDefoVxhcOi-59" target="HEdpV7chVjDefoVxhcOi-61">
          <mxGeometry relative="1" as="geometry">
            <mxPoint x="1133" y="525" as="targetPoint" />
          </mxGeometry>
        </mxCell>
        <mxCell id="HEdpV7chVjDefoVxhcOi-61" value="create task" style="rounded=1;whiteSpace=wrap;html=1;arcSize=40;fontColor=#000000;fillColor=#ffffc0;strokeColor=#ff0000;" vertex="1" parent="1">
          <mxGeometry x="1090" y="505" width="120" height="40" as="geometry" />
        </mxCell>
        <mxCell id="HEdpV7chVjDefoVxhcOi-62" value="" style="edgeStyle=orthogonalEdgeStyle;html=1;verticalAlign=bottom;endArrow=open;endSize=8;strokeColor=#ff0000;rounded=0;" edge="1" parent="1" source="HEdpV7chVjDefoVxhcOi-61" target="HEdpV7chVjDefoVxhcOi-63">
          <mxGeometry relative="1" as="geometry">
            <mxPoint x="1140" y="525" as="targetPoint" />
          </mxGeometry>
        </mxCell>
        <mxCell id="HEdpV7chVjDefoVxhcOi-63" value="sync data" style="rounded=1;whiteSpace=wrap;html=1;arcSize=40;fontColor=#000000;fillColor=#ffffc0;strokeColor=#ff0000;" vertex="1" parent="1">
          <mxGeometry x="1250" y="505" width="120" height="40" as="geometry" />
        </mxCell>
        <mxCell id="HEdpV7chVjDefoVxhcOi-64" value="" style="edgeStyle=orthogonalEdgeStyle;html=1;verticalAlign=bottom;endArrow=open;endSize=8;strokeColor=#ff0000;rounded=0;" edge="1" parent="1" source="HEdpV7chVjDefoVxhcOi-63" target="HEdpV7chVjDefoVxhcOi-67">
          <mxGeometry relative="1" as="geometry">
            <mxPoint x="1420" y="525" as="targetPoint" />
          </mxGeometry>
        </mxCell>
        <mxCell id="HEdpV7chVjDefoVxhcOi-67" value="" style="ellipse;html=1;shape=endState;fillColor=#000000;strokeColor=#ff0000;" vertex="1" parent="1">
          <mxGeometry x="1460" y="510" width="30" height="30" as="geometry" />
        </mxCell>
        <mxCell id="HEdpV7chVjDefoVxhcOi-76" value="create task&amp;nbsp;" style="shape=umlFrame;whiteSpace=wrap;html=1;pointerEvents=0;width=100;height=30;" vertex="1" parent="1">
          <mxGeometry x="10" y="450" width="1620" height="200" as="geometry" />
        </mxCell>
        <mxCell id="HEdpV7chVjDefoVxhcOi-104" value="" style="ellipse;html=1;shape=startState;fillColor=#000000;strokeColor=#ff0000;" vertex="1" parent="1">
          <mxGeometry x="40" y="740" width="30" height="30" as="geometry" />
        </mxCell>
        <mxCell id="HEdpV7chVjDefoVxhcOi-105" value="" style="edgeStyle=orthogonalEdgeStyle;html=1;verticalAlign=bottom;endArrow=open;endSize=8;strokeColor=#ff0000;rounded=0;" edge="1" parent="1" source="HEdpV7chVjDefoVxhcOi-104" target="HEdpV7chVjDefoVxhcOi-108">
          <mxGeometry relative="1" as="geometry">
            <mxPoint x="140" y="755" as="targetPoint" />
          </mxGeometry>
        </mxCell>
        <mxCell id="HEdpV7chVjDefoVxhcOi-108" value="select space" style="rounded=1;whiteSpace=wrap;html=1;arcSize=40;fontColor=#000000;fillColor=#ffffc0;strokeColor=#ff0000;" vertex="1" parent="1">
          <mxGeometry x="330" y="735" width="120" height="40" as="geometry" />
        </mxCell>
        <mxCell id="HEdpV7chVjDefoVxhcOi-109" value="" style="edgeStyle=orthogonalEdgeStyle;html=1;verticalAlign=bottom;endArrow=open;endSize=8;strokeColor=#ff0000;rounded=0;" edge="1" parent="1" source="HEdpV7chVjDefoVxhcOi-108" target="HEdpV7chVjDefoVxhcOi-110">
          <mxGeometry relative="1" as="geometry">
            <mxPoint x="470" y="830" as="targetPoint" />
          </mxGeometry>
        </mxCell>
        <mxCell id="HEdpV7chVjDefoVxhcOi-110" value="" style="rhombus;whiteSpace=wrap;html=1;fontColor=#000000;fillColor=#ffffc0;strokeColor=#ff0000;" vertex="1" parent="1">
          <mxGeometry x="500" y="722.5" width="100" height="65" as="geometry" />
        </mxCell>
        <mxCell id="HEdpV7chVjDefoVxhcOi-111" value="[no]" style="edgeStyle=orthogonalEdgeStyle;html=1;align=left;verticalAlign=bottom;endArrow=open;endSize=8;strokeColor=#ff0000;rounded=0;" edge="1" parent="1" source="HEdpV7chVjDefoVxhcOi-110" target="HEdpV7chVjDefoVxhcOi-113">
          <mxGeometry x="-1" relative="1" as="geometry">
            <mxPoint x="790" y="772.5" as="targetPoint" />
          </mxGeometry>
        </mxCell>
        <mxCell id="HEdpV7chVjDefoVxhcOi-112" value="[yes]" style="edgeStyle=orthogonalEdgeStyle;html=1;align=left;verticalAlign=top;endArrow=open;endSize=8;strokeColor=#ff0000;rounded=0;" edge="1" parent="1" source="HEdpV7chVjDefoVxhcOi-110" target="HEdpV7chVjDefoVxhcOi-256">
          <mxGeometry x="-1" relative="1" as="geometry">
            <mxPoint x="830" y="870" as="targetPoint" />
            <Array as="points">
              <mxPoint x="550" y="850" />
              <mxPoint x="840" y="850" />
            </Array>
          </mxGeometry>
        </mxCell>
        <mxCell id="HEdpV7chVjDefoVxhcOi-113" value="create to-do list" style="rounded=1;whiteSpace=wrap;html=1;arcSize=40;fontColor=#000000;fillColor=#ffffc0;strokeColor=#ff0000;" vertex="1" parent="1">
          <mxGeometry x="660" y="735" width="120" height="40" as="geometry" />
        </mxCell>
        <mxCell id="HEdpV7chVjDefoVxhcOi-114" value="" style="edgeStyle=orthogonalEdgeStyle;html=1;verticalAlign=bottom;endArrow=open;endSize=8;strokeColor=#ff0000;rounded=0;" edge="1" parent="1" source="HEdpV7chVjDefoVxhcOi-113" target="HEdpV7chVjDefoVxhcOi-256">
          <mxGeometry relative="1" as="geometry">
            <mxPoint x="900" y="842.5" as="targetPoint" />
          </mxGeometry>
        </mxCell>
        <mxCell id="HEdpV7chVjDefoVxhcOi-115" value="edit to-do list" style="rounded=1;whiteSpace=wrap;html=1;arcSize=40;fontColor=#000000;fillColor=#ffffc0;strokeColor=#ff0000;" vertex="1" parent="1">
          <mxGeometry x="935" y="735" width="120" height="40" as="geometry" />
        </mxCell>
        <mxCell id="HEdpV7chVjDefoVxhcOi-116" value="" style="edgeStyle=orthogonalEdgeStyle;html=1;verticalAlign=bottom;endArrow=open;endSize=8;strokeColor=#ff0000;rounded=0;" edge="1" parent="1" source="HEdpV7chVjDefoVxhcOi-115" target="HEdpV7chVjDefoVxhcOi-117">
          <mxGeometry relative="1" as="geometry">
            <mxPoint x="1133" y="755" as="targetPoint" />
          </mxGeometry>
        </mxCell>
        <mxCell id="HEdpV7chVjDefoVxhcOi-117" value="edit task" style="rounded=1;whiteSpace=wrap;html=1;arcSize=40;fontColor=#000000;fillColor=#ffffc0;strokeColor=#ff0000;" vertex="1" parent="1">
          <mxGeometry x="1110" y="735" width="120" height="40" as="geometry" />
        </mxCell>
        <mxCell id="HEdpV7chVjDefoVxhcOi-118" value="" style="edgeStyle=orthogonalEdgeStyle;html=1;verticalAlign=bottom;endArrow=open;endSize=8;strokeColor=#ff0000;rounded=0;" edge="1" parent="1" source="HEdpV7chVjDefoVxhcOi-117" target="HEdpV7chVjDefoVxhcOi-119">
          <mxGeometry relative="1" as="geometry">
            <mxPoint x="1140" y="755" as="targetPoint" />
          </mxGeometry>
        </mxCell>
        <mxCell id="HEdpV7chVjDefoVxhcOi-119" value="sync data" style="rounded=1;whiteSpace=wrap;html=1;arcSize=40;fontColor=#000000;fillColor=#ffffc0;strokeColor=#ff0000;" vertex="1" parent="1">
          <mxGeometry x="1270" y="735" width="120" height="40" as="geometry" />
        </mxCell>
        <mxCell id="HEdpV7chVjDefoVxhcOi-120" value="" style="edgeStyle=orthogonalEdgeStyle;html=1;verticalAlign=bottom;endArrow=open;endSize=8;strokeColor=#ff0000;rounded=0;" edge="1" parent="1" source="HEdpV7chVjDefoVxhcOi-119" target="HEdpV7chVjDefoVxhcOi-123">
          <mxGeometry relative="1" as="geometry">
            <mxPoint x="1420" y="755" as="targetPoint" />
          </mxGeometry>
        </mxCell>
        <mxCell id="HEdpV7chVjDefoVxhcOi-123" value="" style="ellipse;html=1;shape=endState;fillColor=#000000;strokeColor=#ff0000;" vertex="1" parent="1">
          <mxGeometry x="1470" y="740" width="30" height="30" as="geometry" />
        </mxCell>
        <mxCell id="HEdpV7chVjDefoVxhcOi-127" value="" style="edgeStyle=orthogonalEdgeStyle;html=1;verticalAlign=bottom;endArrow=open;endSize=8;strokeColor=#ff0000;rounded=0;" edge="1" parent="1" source="HEdpV7chVjDefoVxhcOi-256" target="HEdpV7chVjDefoVxhcOi-115">
          <mxGeometry relative="1" as="geometry">
            <mxPoint x="990" y="870" as="targetPoint" />
            <mxPoint x="950" y="870" as="sourcePoint" />
          </mxGeometry>
        </mxCell>
        <mxCell id="HEdpV7chVjDefoVxhcOi-130" value="edit task&amp;nbsp;" style="shape=umlFrame;whiteSpace=wrap;html=1;pointerEvents=0;width=100;height=30;" vertex="1" parent="1">
          <mxGeometry x="10" y="680" width="1620" height="210" as="geometry" />
        </mxCell>
        <mxCell id="HEdpV7chVjDefoVxhcOi-131" value="" style="ellipse;html=1;shape=startState;fillColor=#000000;strokeColor=#ff0000;" vertex="1" parent="1">
          <mxGeometry x="40" y="980" width="30" height="30" as="geometry" />
        </mxCell>
        <mxCell id="HEdpV7chVjDefoVxhcOi-132" value="" style="edgeStyle=orthogonalEdgeStyle;html=1;verticalAlign=bottom;endArrow=open;endSize=8;strokeColor=#ff0000;rounded=0;" edge="1" parent="1" source="HEdpV7chVjDefoVxhcOi-131" target="HEdpV7chVjDefoVxhcOi-135">
          <mxGeometry relative="1" as="geometry">
            <mxPoint x="140" y="995" as="targetPoint" />
          </mxGeometry>
        </mxCell>
        <mxCell id="HEdpV7chVjDefoVxhcOi-135" value="select space" style="rounded=1;whiteSpace=wrap;html=1;arcSize=40;fontColor=#000000;fillColor=#ffffc0;strokeColor=#ff0000;" vertex="1" parent="1">
          <mxGeometry x="330" y="975" width="120" height="40" as="geometry" />
        </mxCell>
        <mxCell id="HEdpV7chVjDefoVxhcOi-136" value="" style="edgeStyle=orthogonalEdgeStyle;html=1;verticalAlign=bottom;endArrow=open;endSize=8;strokeColor=#ff0000;rounded=0;" edge="1" parent="1" source="HEdpV7chVjDefoVxhcOi-135" target="HEdpV7chVjDefoVxhcOi-137">
          <mxGeometry relative="1" as="geometry">
            <mxPoint x="470" y="1070" as="targetPoint" />
          </mxGeometry>
        </mxCell>
        <mxCell id="HEdpV7chVjDefoVxhcOi-137" value="" style="rhombus;whiteSpace=wrap;html=1;fontColor=#000000;fillColor=#ffffc0;strokeColor=#ff0000;" vertex="1" parent="1">
          <mxGeometry x="500" y="962.5" width="100" height="65" as="geometry" />
        </mxCell>
        <mxCell id="HEdpV7chVjDefoVxhcOi-138" value="[no]" style="edgeStyle=orthogonalEdgeStyle;html=1;align=left;verticalAlign=bottom;endArrow=open;endSize=8;strokeColor=#ff0000;rounded=0;" edge="1" parent="1" source="HEdpV7chVjDefoVxhcOi-137" target="HEdpV7chVjDefoVxhcOi-140">
          <mxGeometry x="-1" relative="1" as="geometry">
            <mxPoint x="790" y="1012.5" as="targetPoint" />
          </mxGeometry>
        </mxCell>
        <mxCell id="HEdpV7chVjDefoVxhcOi-139" value="[yes]" style="edgeStyle=orthogonalEdgeStyle;html=1;align=left;verticalAlign=top;endArrow=open;endSize=8;strokeColor=#ff0000;rounded=0;" edge="1" parent="1" source="HEdpV7chVjDefoVxhcOi-137" target="HEdpV7chVjDefoVxhcOi-254">
          <mxGeometry x="-1" relative="1" as="geometry">
            <mxPoint x="830" y="1110" as="targetPoint" />
            <Array as="points">
              <mxPoint x="550" y="1080" />
              <mxPoint x="870" y="1080" />
            </Array>
          </mxGeometry>
        </mxCell>
        <mxCell id="HEdpV7chVjDefoVxhcOi-140" value="create to-do list" style="rounded=1;whiteSpace=wrap;html=1;arcSize=40;fontColor=#000000;fillColor=#ffffc0;strokeColor=#ff0000;" vertex="1" parent="1">
          <mxGeometry x="660" y="975" width="120" height="40" as="geometry" />
        </mxCell>
        <mxCell id="HEdpV7chVjDefoVxhcOi-141" value="" style="edgeStyle=orthogonalEdgeStyle;html=1;verticalAlign=bottom;endArrow=open;endSize=8;strokeColor=#ff0000;rounded=0;" edge="1" parent="1" source="HEdpV7chVjDefoVxhcOi-140" target="HEdpV7chVjDefoVxhcOi-254">
          <mxGeometry relative="1" as="geometry">
            <mxPoint x="900" y="1082.5" as="targetPoint" />
          </mxGeometry>
        </mxCell>
        <mxCell id="HEdpV7chVjDefoVxhcOi-142" value="edit to-do list" style="rounded=1;whiteSpace=wrap;html=1;arcSize=40;fontColor=#000000;fillColor=#ffffc0;strokeColor=#ff0000;" vertex="1" parent="1">
          <mxGeometry x="965" y="975" width="120" height="40" as="geometry" />
        </mxCell>
        <mxCell id="HEdpV7chVjDefoVxhcOi-143" value="" style="edgeStyle=orthogonalEdgeStyle;html=1;verticalAlign=bottom;endArrow=open;endSize=8;strokeColor=#ff0000;rounded=0;" edge="1" parent="1" source="HEdpV7chVjDefoVxhcOi-142" target="HEdpV7chVjDefoVxhcOi-144">
          <mxGeometry relative="1" as="geometry">
            <mxPoint x="1268" y="995" as="targetPoint" />
          </mxGeometry>
        </mxCell>
        <mxCell id="HEdpV7chVjDefoVxhcOi-144" value="delete task" style="rounded=1;whiteSpace=wrap;html=1;arcSize=40;fontColor=#000000;fillColor=#ffffc0;strokeColor=#ff0000;" vertex="1" parent="1">
          <mxGeometry x="1125" y="975" width="120" height="40" as="geometry" />
        </mxCell>
        <mxCell id="HEdpV7chVjDefoVxhcOi-145" value="" style="edgeStyle=orthogonalEdgeStyle;html=1;verticalAlign=bottom;endArrow=open;endSize=8;strokeColor=#ff0000;rounded=0;" edge="1" parent="1" source="HEdpV7chVjDefoVxhcOi-144" target="HEdpV7chVjDefoVxhcOi-146">
          <mxGeometry relative="1" as="geometry">
            <mxPoint x="1210" y="995" as="targetPoint" />
          </mxGeometry>
        </mxCell>
        <mxCell id="HEdpV7chVjDefoVxhcOi-146" value="sync data" style="rounded=1;whiteSpace=wrap;html=1;arcSize=40;fontColor=#000000;fillColor=#ffffc0;strokeColor=#ff0000;" vertex="1" parent="1">
          <mxGeometry x="1320" y="975" width="120" height="40" as="geometry" />
        </mxCell>
        <mxCell id="HEdpV7chVjDefoVxhcOi-147" value="" style="edgeStyle=orthogonalEdgeStyle;html=1;verticalAlign=bottom;endArrow=open;endSize=8;strokeColor=#ff0000;rounded=0;" edge="1" parent="1" source="HEdpV7chVjDefoVxhcOi-146" target="HEdpV7chVjDefoVxhcOi-150">
          <mxGeometry relative="1" as="geometry">
            <mxPoint x="1490" y="995" as="targetPoint" />
          </mxGeometry>
        </mxCell>
        <mxCell id="HEdpV7chVjDefoVxhcOi-150" value="" style="ellipse;html=1;shape=endState;fillColor=#000000;strokeColor=#ff0000;" vertex="1" parent="1">
          <mxGeometry x="1540" y="980" width="30" height="30" as="geometry" />
        </mxCell>
        <mxCell id="HEdpV7chVjDefoVxhcOi-157" value="delete task&amp;nbsp;" style="shape=umlFrame;whiteSpace=wrap;html=1;pointerEvents=0;width=100;height=30;" vertex="1" parent="1">
          <mxGeometry x="10" y="920" width="1620" height="190" as="geometry" />
        </mxCell>
        <mxCell id="HEdpV7chVjDefoVxhcOi-158" value="" style="ellipse;html=1;shape=startState;fillColor=#000000;strokeColor=#ff0000;" vertex="1" parent="1">
          <mxGeometry x="40" y="1180" width="30" height="30" as="geometry" />
        </mxCell>
        <mxCell id="HEdpV7chVjDefoVxhcOi-159" value="" style="edgeStyle=orthogonalEdgeStyle;html=1;verticalAlign=bottom;endArrow=open;endSize=8;strokeColor=#ff0000;rounded=0;" edge="1" parent="1" source="HEdpV7chVjDefoVxhcOi-158" target="HEdpV7chVjDefoVxhcOi-162">
          <mxGeometry relative="1" as="geometry">
            <mxPoint x="140" y="1195" as="targetPoint" />
          </mxGeometry>
        </mxCell>
        <mxCell id="HEdpV7chVjDefoVxhcOi-162" value="select space" style="rounded=1;whiteSpace=wrap;html=1;arcSize=40;fontColor=#000000;fillColor=#ffffc0;strokeColor=#ff0000;" vertex="1" parent="1">
          <mxGeometry x="165" y="1175" width="120" height="40" as="geometry" />
        </mxCell>
        <mxCell id="HEdpV7chVjDefoVxhcOi-163" value="" style="edgeStyle=orthogonalEdgeStyle;html=1;verticalAlign=bottom;endArrow=open;endSize=8;strokeColor=#ff0000;rounded=0;" edge="1" parent="1" source="HEdpV7chVjDefoVxhcOi-162" target="HEdpV7chVjDefoVxhcOi-185">
          <mxGeometry relative="1" as="geometry">
            <mxPoint x="335" y="1195" as="targetPoint" />
          </mxGeometry>
        </mxCell>
        <mxCell id="HEdpV7chVjDefoVxhcOi-173" value="sync data" style="rounded=1;whiteSpace=wrap;html=1;arcSize=40;fontColor=#000000;fillColor=#ffffc0;strokeColor=#ff0000;" vertex="1" parent="1">
          <mxGeometry x="825" y="1175" width="120" height="40" as="geometry" />
        </mxCell>
        <mxCell id="HEdpV7chVjDefoVxhcOi-174" value="" style="edgeStyle=orthogonalEdgeStyle;html=1;verticalAlign=bottom;endArrow=open;endSize=8;strokeColor=#ff0000;rounded=0;" edge="1" parent="1" source="HEdpV7chVjDefoVxhcOi-173" target="HEdpV7chVjDefoVxhcOi-177">
          <mxGeometry relative="1" as="geometry">
            <mxPoint x="1005" y="1195" as="targetPoint" />
          </mxGeometry>
        </mxCell>
        <mxCell id="HEdpV7chVjDefoVxhcOi-177" value="" style="ellipse;html=1;shape=endState;fillColor=#000000;strokeColor=#ff0000;" vertex="1" parent="1">
          <mxGeometry x="1025" y="1180" width="30" height="30" as="geometry" />
        </mxCell>
        <mxCell id="HEdpV7chVjDefoVxhcOi-179" value="" style="edgeStyle=orthogonalEdgeStyle;html=1;verticalAlign=bottom;endArrow=open;endSize=8;strokeColor=#ff0000;rounded=0;" edge="1" parent="1" source="HEdpV7chVjDefoVxhcOi-182" target="HEdpV7chVjDefoVxhcOi-173">
          <mxGeometry relative="1" as="geometry">
            <mxPoint x="715" y="975" as="targetPoint" />
            <mxPoint x="1055" y="1195" as="sourcePoint" />
          </mxGeometry>
        </mxCell>
        <mxCell id="HEdpV7chVjDefoVxhcOi-180" value="edit to-do list" style="rounded=1;whiteSpace=wrap;html=1;arcSize=40;fontColor=#000000;fillColor=#ffffc0;strokeColor=#ff0000;" vertex="1" parent="1">
          <mxGeometry x="495" y="1175" width="120" height="40" as="geometry" />
        </mxCell>
        <mxCell id="HEdpV7chVjDefoVxhcOi-181" value="" style="edgeStyle=orthogonalEdgeStyle;html=1;verticalAlign=bottom;endArrow=open;endSize=8;strokeColor=#ff0000;rounded=0;" edge="1" parent="1" source="HEdpV7chVjDefoVxhcOi-180" target="HEdpV7chVjDefoVxhcOi-182">
          <mxGeometry relative="1" as="geometry">
            <mxPoint x="968" y="1310" as="targetPoint" />
          </mxGeometry>
        </mxCell>
        <mxCell id="HEdpV7chVjDefoVxhcOi-182" value="mark task as finished" style="rounded=1;whiteSpace=wrap;html=1;arcSize=40;fontColor=#000000;fillColor=#ffffc0;strokeColor=#ff0000;" vertex="1" parent="1">
          <mxGeometry x="655" y="1175" width="120" height="40" as="geometry" />
        </mxCell>
        <mxCell id="HEdpV7chVjDefoVxhcOi-184" value="mark task as finished&amp;nbsp;" style="shape=umlFrame;whiteSpace=wrap;html=1;pointerEvents=0;width=130;height=30;" vertex="1" parent="1">
          <mxGeometry x="10" y="1130" width="1110" height="130" as="geometry" />
        </mxCell>
        <mxCell id="HEdpV7chVjDefoVxhcOi-185" value="select to-do list" style="rounded=1;whiteSpace=wrap;html=1;arcSize=40;fontColor=#000000;fillColor=#ffffc0;strokeColor=#ff0000;" vertex="1" parent="1">
          <mxGeometry x="335" y="1175" width="120" height="40" as="geometry" />
        </mxCell>
        <mxCell id="HEdpV7chVjDefoVxhcOi-186" value="" style="line;strokeWidth=1;fillColor=none;align=left;verticalAlign=middle;spacingTop=-1;spacingLeft=3;spacingRight=3;rotatable=0;labelPosition=right;points=[];portConstraint=eastwest;strokeColor=inherit;" vertex="1" parent="1">
          <mxGeometry x="10" y="150" width="1520" height="8" as="geometry" />
        </mxCell>
        <mxCell id="HEdpV7chVjDefoVxhcOi-187" value="user" style="text;align=center;fontStyle=1;verticalAlign=middle;spacingLeft=3;spacingRight=3;strokeColor=none;rotatable=0;points=[[0,0.5],[1,0.5]];portConstraint=eastwest;html=1;" vertex="1" parent="1">
          <mxGeometry y="132" width="80" height="26" as="geometry" />
        </mxCell>
        <mxCell id="HEdpV7chVjDefoVxhcOi-188" value="server" style="text;align=center;fontStyle=1;verticalAlign=middle;spacingLeft=3;spacingRight=3;strokeColor=none;rotatable=0;points=[[0,0.5],[1,0.5]];portConstraint=eastwest;html=1;" vertex="1" parent="1">
          <mxGeometry y="184" width="80" height="26" as="geometry" />
        </mxCell>
        <mxCell id="HEdpV7chVjDefoVxhcOi-189" value="" style="edgeStyle=orthogonalEdgeStyle;html=1;verticalAlign=bottom;endArrow=open;endSize=8;strokeColor=#ff0000;rounded=0;" edge="1" parent="1" source="HEdpV7chVjDefoVxhcOi-185" target="HEdpV7chVjDefoVxhcOi-180">
          <mxGeometry relative="1" as="geometry">
            <mxPoint x="345" y="1205" as="targetPoint" />
            <mxPoint x="295" y="1205" as="sourcePoint" />
          </mxGeometry>
        </mxCell>
        <mxCell id="HEdpV7chVjDefoVxhcOi-191" value="" style="ellipse;html=1;shape=startState;fillColor=#000000;strokeColor=#ff0000;" vertex="1" parent="1">
          <mxGeometry x="35" y="1344" width="30" height="30" as="geometry" />
        </mxCell>
        <mxCell id="HEdpV7chVjDefoVxhcOi-192" value="" style="edgeStyle=orthogonalEdgeStyle;html=1;verticalAlign=bottom;endArrow=open;endSize=8;strokeColor=#ff0000;rounded=0;" edge="1" source="HEdpV7chVjDefoVxhcOi-191" parent="1" target="HEdpV7chVjDefoVxhcOi-195">
          <mxGeometry relative="1" as="geometry">
            <mxPoint x="165" y="1359" as="targetPoint" />
          </mxGeometry>
        </mxCell>
        <mxCell id="HEdpV7chVjDefoVxhcOi-195" value="create space" style="rounded=1;whiteSpace=wrap;html=1;arcSize=40;fontColor=#000000;fillColor=#ffffc0;strokeColor=#ff0000;" vertex="1" parent="1">
          <mxGeometry x="170" y="1339" width="120" height="40" as="geometry" />
        </mxCell>
        <mxCell id="HEdpV7chVjDefoVxhcOi-196" value="" style="edgeStyle=orthogonalEdgeStyle;html=1;verticalAlign=bottom;endArrow=open;endSize=8;strokeColor=#ff0000;rounded=0;" edge="1" source="HEdpV7chVjDefoVxhcOi-195" parent="1" target="HEdpV7chVjDefoVxhcOi-197">
          <mxGeometry relative="1" as="geometry">
            <mxPoint x="260" y="1390" as="targetPoint" />
          </mxGeometry>
        </mxCell>
        <mxCell id="HEdpV7chVjDefoVxhcOi-197" value="sync data" style="rounded=1;whiteSpace=wrap;html=1;arcSize=40;fontColor=#000000;fillColor=#ffffc0;strokeColor=#ff0000;" vertex="1" parent="1">
          <mxGeometry x="380" y="1339" width="120" height="40" as="geometry" />
        </mxCell>
        <mxCell id="HEdpV7chVjDefoVxhcOi-198" value="" style="edgeStyle=orthogonalEdgeStyle;html=1;verticalAlign=bottom;endArrow=open;endSize=8;strokeColor=#ff0000;rounded=0;" edge="1" parent="1" source="HEdpV7chVjDefoVxhcOi-197" target="HEdpV7chVjDefoVxhcOi-201">
          <mxGeometry relative="1" as="geometry">
            <mxPoint x="560" y="1359" as="targetPoint" />
          </mxGeometry>
        </mxCell>
        <mxCell id="HEdpV7chVjDefoVxhcOi-201" value="" style="ellipse;html=1;shape=endState;fillColor=#000000;strokeColor=#ff0000;" vertex="1" parent="1">
          <mxGeometry x="595" y="1344" width="30" height="30" as="geometry" />
        </mxCell>
        <mxCell id="HEdpV7chVjDefoVxhcOi-202" value="create space" style="shape=umlFrame;whiteSpace=wrap;html=1;pointerEvents=0;" vertex="1" parent="1">
          <mxGeometry x="10" y="1280" width="670" height="160" as="geometry" />
        </mxCell>
        <mxCell id="HEdpV7chVjDefoVxhcOi-209" value="" style="ellipse;html=1;shape=startState;fillColor=#000000;strokeColor=#ff0000;" vertex="1" parent="1">
          <mxGeometry x="722" y="1344" width="30" height="30" as="geometry" />
        </mxCell>
        <mxCell id="HEdpV7chVjDefoVxhcOi-210" value="" style="edgeStyle=orthogonalEdgeStyle;html=1;verticalAlign=bottom;endArrow=open;endSize=8;strokeColor=#ff0000;rounded=0;" edge="1" parent="1" source="HEdpV7chVjDefoVxhcOi-209" target="HEdpV7chVjDefoVxhcOi-221">
          <mxGeometry relative="1" as="geometry">
            <mxPoint x="852" y="1359" as="targetPoint" />
          </mxGeometry>
        </mxCell>
        <mxCell id="HEdpV7chVjDefoVxhcOi-213" value="delete space" style="rounded=1;whiteSpace=wrap;html=1;arcSize=40;fontColor=#000000;fillColor=#ffffc0;strokeColor=#ff0000;" vertex="1" parent="1">
          <mxGeometry x="1067" y="1339" width="120" height="40" as="geometry" />
        </mxCell>
        <mxCell id="HEdpV7chVjDefoVxhcOi-214" value="" style="edgeStyle=orthogonalEdgeStyle;html=1;verticalAlign=bottom;endArrow=open;endSize=8;strokeColor=#ff0000;rounded=0;" edge="1" parent="1" source="HEdpV7chVjDefoVxhcOi-213" target="HEdpV7chVjDefoVxhcOi-215">
          <mxGeometry relative="1" as="geometry">
            <mxPoint x="1217" y="1390" as="targetPoint" />
          </mxGeometry>
        </mxCell>
        <mxCell id="HEdpV7chVjDefoVxhcOi-215" value="sync data" style="rounded=1;whiteSpace=wrap;html=1;arcSize=40;fontColor=#000000;fillColor=#ffffc0;strokeColor=#ff0000;" vertex="1" parent="1">
          <mxGeometry x="1277" y="1339" width="120" height="40" as="geometry" />
        </mxCell>
        <mxCell id="HEdpV7chVjDefoVxhcOi-216" value="" style="edgeStyle=orthogonalEdgeStyle;html=1;verticalAlign=bottom;endArrow=open;endSize=8;strokeColor=#ff0000;rounded=0;" edge="1" parent="1" source="HEdpV7chVjDefoVxhcOi-215" target="HEdpV7chVjDefoVxhcOi-219">
          <mxGeometry relative="1" as="geometry">
            <mxPoint x="1517" y="1359" as="targetPoint" />
          </mxGeometry>
        </mxCell>
        <mxCell id="HEdpV7chVjDefoVxhcOi-219" value="" style="ellipse;html=1;shape=endState;fillColor=#000000;strokeColor=#ff0000;" vertex="1" parent="1">
          <mxGeometry x="1487" y="1344" width="30" height="30" as="geometry" />
        </mxCell>
        <mxCell id="HEdpV7chVjDefoVxhcOi-220" value="delete space" style="shape=umlFrame;whiteSpace=wrap;html=1;pointerEvents=0;" vertex="1" parent="1">
          <mxGeometry x="697" y="1280" width="870" height="160" as="geometry" />
        </mxCell>
        <mxCell id="HEdpV7chVjDefoVxhcOi-221" value="select space" style="rounded=1;whiteSpace=wrap;html=1;arcSize=40;fontColor=#000000;fillColor=#ffffc0;strokeColor=#ff0000;" vertex="1" parent="1">
          <mxGeometry x="857" y="1339" width="120" height="40" as="geometry" />
        </mxCell>
        <mxCell id="HEdpV7chVjDefoVxhcOi-222" value="" style="edgeStyle=orthogonalEdgeStyle;html=1;verticalAlign=bottom;endArrow=open;endSize=8;strokeColor=#ff0000;rounded=0;" edge="1" parent="1" source="HEdpV7chVjDefoVxhcOi-221" target="HEdpV7chVjDefoVxhcOi-213">
          <mxGeometry relative="1" as="geometry">
            <mxPoint x="1027" y="1399" as="targetPoint" />
          </mxGeometry>
        </mxCell>
        <mxCell id="HEdpV7chVjDefoVxhcOi-223" value="" style="ellipse;html=1;shape=startState;fillColor=#000000;strokeColor=#ff0000;" vertex="1" parent="1">
          <mxGeometry x="35" y="1514" width="30" height="30" as="geometry" />
        </mxCell>
        <mxCell id="HEdpV7chVjDefoVxhcOi-224" value="" style="edgeStyle=orthogonalEdgeStyle;html=1;verticalAlign=bottom;endArrow=open;endSize=8;strokeColor=#ff0000;rounded=0;" edge="1" parent="1" source="HEdpV7chVjDefoVxhcOi-223" target="HEdpV7chVjDefoVxhcOi-235">
          <mxGeometry relative="1" as="geometry">
            <mxPoint x="165" y="1529" as="targetPoint" />
          </mxGeometry>
        </mxCell>
        <mxCell id="HEdpV7chVjDefoVxhcOi-227" value="edit space title" style="rounded=1;whiteSpace=wrap;html=1;arcSize=40;fontColor=#000000;fillColor=#ffffc0;strokeColor=#ff0000;" vertex="1" parent="1">
          <mxGeometry x="380" y="1509" width="120" height="40" as="geometry" />
        </mxCell>
        <mxCell id="HEdpV7chVjDefoVxhcOi-228" value="" style="edgeStyle=orthogonalEdgeStyle;html=1;verticalAlign=bottom;endArrow=open;endSize=8;strokeColor=#ff0000;rounded=0;" edge="1" parent="1" source="HEdpV7chVjDefoVxhcOi-227" target="HEdpV7chVjDefoVxhcOi-229">
          <mxGeometry relative="1" as="geometry">
            <mxPoint x="530" y="1560" as="targetPoint" />
          </mxGeometry>
        </mxCell>
        <mxCell id="HEdpV7chVjDefoVxhcOi-229" value="sync data" style="rounded=1;whiteSpace=wrap;html=1;arcSize=40;fontColor=#000000;fillColor=#ffffc0;strokeColor=#ff0000;" vertex="1" parent="1">
          <mxGeometry x="610" y="1509" width="120" height="40" as="geometry" />
        </mxCell>
        <mxCell id="HEdpV7chVjDefoVxhcOi-230" value="" style="edgeStyle=orthogonalEdgeStyle;html=1;verticalAlign=bottom;endArrow=open;endSize=8;strokeColor=#ff0000;rounded=0;" edge="1" parent="1" source="HEdpV7chVjDefoVxhcOi-229" target="HEdpV7chVjDefoVxhcOi-233">
          <mxGeometry relative="1" as="geometry">
            <mxPoint x="830" y="1529" as="targetPoint" />
          </mxGeometry>
        </mxCell>
        <mxCell id="HEdpV7chVjDefoVxhcOi-233" value="" style="ellipse;html=1;shape=endState;fillColor=#000000;strokeColor=#ff0000;" vertex="1" parent="1">
          <mxGeometry x="865" y="1514" width="30" height="30" as="geometry" />
        </mxCell>
        <mxCell id="HEdpV7chVjDefoVxhcOi-234" value="edit space title" style="shape=umlFrame;whiteSpace=wrap;html=1;pointerEvents=0;" vertex="1" parent="1">
          <mxGeometry x="10" y="1450" width="900" height="150" as="geometry" />
        </mxCell>
        <mxCell id="HEdpV7chVjDefoVxhcOi-235" value="select space" style="rounded=1;whiteSpace=wrap;html=1;arcSize=40;fontColor=#000000;fillColor=#ffffc0;strokeColor=#ff0000;" vertex="1" parent="1">
          <mxGeometry x="170" y="1509" width="120" height="40" as="geometry" />
        </mxCell>
        <mxCell id="HEdpV7chVjDefoVxhcOi-236" value="" style="edgeStyle=orthogonalEdgeStyle;html=1;verticalAlign=bottom;endArrow=open;endSize=8;strokeColor=#ff0000;rounded=0;" edge="1" parent="1" source="HEdpV7chVjDefoVxhcOi-235" target="HEdpV7chVjDefoVxhcOi-227">
          <mxGeometry relative="1" as="geometry">
            <mxPoint x="340" y="1569" as="targetPoint" />
          </mxGeometry>
        </mxCell>
        <mxCell id="HEdpV7chVjDefoVxhcOi-237" value="to-do list exisists" style="text;align=center;fontStyle=1;verticalAlign=middle;spacingLeft=3;spacingRight=3;strokeColor=none;rotatable=0;points=[[0,0.5],[1,0.5]];portConstraint=eastwest;html=1;" vertex="1" parent="1">
          <mxGeometry x="510" y="467" width="80" height="26" as="geometry" />
        </mxCell>
        <mxCell id="HEdpV7chVjDefoVxhcOi-238" value="to-do list exisists" style="text;align=center;fontStyle=1;verticalAlign=middle;spacingLeft=3;spacingRight=3;strokeColor=none;rotatable=0;points=[[0,0.5],[1,0.5]];portConstraint=eastwest;html=1;" vertex="1" parent="1">
          <mxGeometry x="510" y="696.5" width="80" height="26" as="geometry" />
        </mxCell>
        <mxCell id="HEdpV7chVjDefoVxhcOi-239" value="to-do list exisists" style="text;align=center;fontStyle=1;verticalAlign=middle;spacingLeft=3;spacingRight=3;strokeColor=none;rotatable=0;points=[[0,0.5],[1,0.5]];portConstraint=eastwest;html=1;" vertex="1" parent="1">
          <mxGeometry x="510" y="936.5" width="80" height="26" as="geometry" />
        </mxCell>
        <mxCell id="HEdpV7chVjDefoVxhcOi-240" value="" style="ellipse;html=1;shape=startState;fillColor=#000000;strokeColor=#ff0000;" vertex="1" parent="1">
          <mxGeometry x="965" y="1514" width="30" height="30" as="geometry" />
        </mxCell>
        <mxCell id="HEdpV7chVjDefoVxhcOi-241" value="" style="edgeStyle=orthogonalEdgeStyle;html=1;verticalAlign=bottom;endArrow=open;endSize=8;strokeColor=#ff0000;rounded=0;" edge="1" parent="1" source="HEdpV7chVjDefoVxhcOi-240" target="HEdpV7chVjDefoVxhcOi-252">
          <mxGeometry relative="1" as="geometry">
            <mxPoint x="1095" y="1529" as="targetPoint" />
          </mxGeometry>
        </mxCell>
        <mxCell id="HEdpV7chVjDefoVxhcOi-244" value="close and archive space" style="rounded=1;whiteSpace=wrap;html=1;arcSize=40;fontColor=#000000;fillColor=#ffffc0;strokeColor=#ff0000;" vertex="1" parent="1">
          <mxGeometry x="1310" y="1509" width="120" height="40" as="geometry" />
        </mxCell>
        <mxCell id="HEdpV7chVjDefoVxhcOi-245" value="" style="edgeStyle=orthogonalEdgeStyle;html=1;verticalAlign=bottom;endArrow=open;endSize=8;strokeColor=#ff0000;rounded=0;" edge="1" parent="1" source="HEdpV7chVjDefoVxhcOi-244" target="HEdpV7chVjDefoVxhcOi-246">
          <mxGeometry relative="1" as="geometry">
            <mxPoint x="1460" y="1560" as="targetPoint" />
          </mxGeometry>
        </mxCell>
        <mxCell id="HEdpV7chVjDefoVxhcOi-246" value="sync data" style="rounded=1;whiteSpace=wrap;html=1;arcSize=40;fontColor=#000000;fillColor=#ffffc0;strokeColor=#ff0000;" vertex="1" parent="1">
          <mxGeometry x="1540" y="1509" width="120" height="40" as="geometry" />
        </mxCell>
        <mxCell id="HEdpV7chVjDefoVxhcOi-247" value="" style="edgeStyle=orthogonalEdgeStyle;html=1;verticalAlign=bottom;endArrow=open;endSize=8;strokeColor=#ff0000;rounded=0;" edge="1" parent="1" source="HEdpV7chVjDefoVxhcOi-246" target="HEdpV7chVjDefoVxhcOi-250">
          <mxGeometry relative="1" as="geometry">
            <mxPoint x="1760" y="1529" as="targetPoint" />
          </mxGeometry>
        </mxCell>
        <mxCell id="HEdpV7chVjDefoVxhcOi-250" value="" style="ellipse;html=1;shape=endState;fillColor=#000000;strokeColor=#ff0000;" vertex="1" parent="1">
          <mxGeometry x="1795" y="1514" width="30" height="30" as="geometry" />
        </mxCell>
        <mxCell id="HEdpV7chVjDefoVxhcOi-251" value="close and archive spaces&lt;span id=&quot;docs-internal-guid-0322f85c-7fff-1cc9-a8cc-62a948b5867b&quot;&gt;&lt;/span&gt;&lt;span id=&quot;docs-internal-guid-0322f85c-7fff-1cc9-a8cc-62a948b5867b&quot;&gt;&lt;/span&gt;" style="shape=umlFrame;whiteSpace=wrap;html=1;pointerEvents=0;width=100;height=30;" vertex="1" parent="1">
          <mxGeometry x="940" y="1450" width="900" height="150" as="geometry" />
        </mxCell>
        <mxCell id="HEdpV7chVjDefoVxhcOi-252" value="select space" style="rounded=1;whiteSpace=wrap;html=1;arcSize=40;fontColor=#000000;fillColor=#ffffc0;strokeColor=#ff0000;" vertex="1" parent="1">
          <mxGeometry x="1100" y="1509" width="120" height="40" as="geometry" />
        </mxCell>
        <mxCell id="HEdpV7chVjDefoVxhcOi-253" value="" style="edgeStyle=orthogonalEdgeStyle;html=1;verticalAlign=bottom;endArrow=open;endSize=8;strokeColor=#ff0000;rounded=0;" edge="1" parent="1" source="HEdpV7chVjDefoVxhcOi-252" target="HEdpV7chVjDefoVxhcOi-244">
          <mxGeometry relative="1" as="geometry">
            <mxPoint x="1270" y="1569" as="targetPoint" />
          </mxGeometry>
        </mxCell>
        <mxCell id="HEdpV7chVjDefoVxhcOi-254" value="" style="rhombus;whiteSpace=wrap;html=1;fontColor=#000000;fillColor=#ffffc0;strokeColor=#ff0000;" vertex="1" parent="1">
          <mxGeometry x="830" y="975" width="80" height="40" as="geometry" />
        </mxCell>
        <mxCell id="HEdpV7chVjDefoVxhcOi-255" value="" style="edgeStyle=orthogonalEdgeStyle;html=1;verticalAlign=bottom;endArrow=open;endSize=8;strokeColor=#ff0000;rounded=0;" edge="1" parent="1" source="HEdpV7chVjDefoVxhcOi-254" target="HEdpV7chVjDefoVxhcOi-142">
          <mxGeometry relative="1" as="geometry">
            <mxPoint x="840" y="1005" as="targetPoint" />
            <mxPoint x="790" y="1005" as="sourcePoint" />
          </mxGeometry>
        </mxCell>
        <mxCell id="HEdpV7chVjDefoVxhcOi-256" value="" style="rhombus;whiteSpace=wrap;html=1;fontColor=#000000;fillColor=#ffffc0;strokeColor=#ff0000;" vertex="1" parent="1">
          <mxGeometry x="800" y="735" width="80" height="40" as="geometry" />
        </mxCell>
        <mxCell id="HEdpV7chVjDefoVxhcOi-257" value="" style="rhombus;whiteSpace=wrap;html=1;fontColor=#000000;fillColor=#ffffc0;strokeColor=#ff0000;" vertex="1" parent="1">
          <mxGeometry x="807" y="505" width="80" height="40" as="geometry" />
        </mxCell>
        <mxCell id="HEdpV7chVjDefoVxhcOi-259" value="" style="edgeStyle=orthogonalEdgeStyle;html=1;verticalAlign=bottom;endArrow=open;endSize=8;strokeColor=#ff0000;rounded=0;" edge="1" parent="1" source="HEdpV7chVjDefoVxhcOi-257" target="HEdpV7chVjDefoVxhcOi-59">
          <mxGeometry relative="1" as="geometry">
            <mxPoint x="945" y="845" as="targetPoint" />
            <mxPoint x="890" y="845" as="sourcePoint" />
          </mxGeometry>
        </mxCell>
      </root>
    </mxGraphModel>
  </diagram>
</mxfile>
